{
	"patcher" : 	{
		"fileversion" : 1,
		"rect" : [ 967.0, 411.0, 640.0, 480.0 ],
		"bglocked" : 0,
		"defrect" : [ 967.0, 411.0, 640.0, 480.0 ],
		"openrect" : [ 0.0, 0.0, 0.0, 0.0 ],
		"openinpresentation" : 0,
		"default_fontsize" : 12.0,
		"default_fontface" : 0,
		"default_fontname" : "Arial",
		"gridonopen" : 0,
		"gridsize" : [ 4.0, 4.0 ],
		"gridsnaponopen" : 0,
		"toolbarvisible" : 1,
		"boxanimatetime" : 200,
		"imprint" : 0,
		"enablehscroll" : 1,
		"enablevscroll" : 1,
		"devicewidth" : 0.0,
		"boxes" : [ 			{
				"box" : 				{
					"maxclass" : "newobj",
					"text" : "cos~",
					"patching_rect" : [ 188.0, 144.0, 36.0, 20.0 ],
					"numinlets" : 1,
					"id" : "obj-13",
					"fontname" : "Arial",
					"numoutlets" : 1,
					"outlettype" : [ "signal" ],
					"fontsize" : 12.0
				}

			}
, 			{
				"box" : 				{
					"maxclass" : "newobj",
					"text" : "/~ 2",
					"patching_rect" : [ 188.0, 120.0, 32.5, 20.0 ],
					"numinlets" : 2,
					"id" : "obj-14",
					"fontname" : "Arial",
					"numoutlets" : 1,
					"outlettype" : [ "signal" ],
					"fontsize" : 12.0
				}

			}
, 			{
				"box" : 				{
					"maxclass" : "newobj",
					"text" : "-~ 0.5",
					"patching_rect" : [ 188.0, 92.0, 42.0, 20.0 ],
					"numinlets" : 2,
					"id" : "obj-15",
					"fontname" : "Arial",
					"numoutlets" : 1,
					"outlettype" : [ "signal" ],
					"fontsize" : 12.0
				}

			}
, 			{
				"box" : 				{
					"maxclass" : "newobj",
					"text" : "%~ 1",
					"patching_rect" : [ 140.0, 68.0, 38.0, 20.0 ],
					"numinlets" : 2,
					"id" : "obj-16",
					"fontname" : "Arial",
					"numoutlets" : 1,
					"outlettype" : [ "signal" ],
					"fontsize" : 12.0
				}

			}
, 			{
				"box" : 				{
					"maxclass" : "newobj",
					"text" : "*~ 100",
					"patching_rect" : [ 140.0, 92.0, 46.0, 20.0 ],
					"numinlets" : 2,
					"id" : "obj-17",
					"fontname" : "Arial",
					"numoutlets" : 1,
					"outlettype" : [ "signal" ],
					"fontsize" : 12.0
				}

			}
, 			{
				"box" : 				{
					"maxclass" : "newobj",
					"text" : "*~",
					"patching_rect" : [ 92.0, 148.0, 32.5, 20.0 ],
					"numinlets" : 2,
					"id" : "obj-18",
					"fontname" : "Arial",
					"numoutlets" : 1,
					"outlettype" : [ "signal" ],
					"fontsize" : 12.0
				}

			}
, 			{
				"box" : 				{
					"maxclass" : "newobj",
					"text" : "tapout~",
					"patching_rect" : [ 92.0, 120.0, 51.0, 20.0 ],
					"numinlets" : 1,
					"id" : "obj-19",
					"fontname" : "Arial",
					"numoutlets" : 1,
					"outlettype" : [ "signal" ],
					"fontsize" : 12.0
				}

			}
, 			{
				"box" : 				{
					"maxclass" : "newobj",
					"text" : "tapin~",
					"patching_rect" : [ 92.0, 92.0, 44.0, 20.0 ],
					"numinlets" : 1,
					"id" : "obj-20",
					"fontname" : "Arial",
					"numoutlets" : 1,
					"outlettype" : [ "tapconnect" ],
					"fontsize" : 12.0
				}

			}
, 			{
				"box" : 				{
					"maxclass" : "newobj",
					"text" : "+~ 0.5",
					"patching_rect" : [ 140.0, 40.0, 45.0, 20.0 ],
					"numinlets" : 2,
					"id" : "obj-8",
					"fontname" : "Arial",
					"numoutlets" : 1,
					"outlettype" : [ "signal" ],
					"fontsize" : 12.0
				}

			}
 ],
		"lines" : [ 			{
				"patchline" : 				{
					"source" : [ "obj-13", 0 ],
					"destination" : [ "obj-18", 1 ],
					"hidden" : 0,
					"midpoints" : [  ]
				}

			}
, 			{
				"patchline" : 				{
					"source" : [ "obj-14", 0 ],
					"destination" : [ "obj-13", 0 ],
					"hidden" : 0,
					"midpoints" : [  ]
				}

			}
, 			{
				"patchline" : 				{
					"source" : [ "obj-15", 0 ],
					"destination" : [ "obj-14", 0 ],
					"hidden" : 0,
					"midpoints" : [  ]
				}

			}
, 			{
				"patchline" : 				{
					"source" : [ "obj-16", 0 ],
					"destination" : [ "obj-15", 0 ],
					"hidden" : 0,
					"midpoints" : [  ]
				}

			}
, 			{
				"patchline" : 				{
					"source" : [ "obj-16", 0 ],
					"destination" : [ "obj-17", 0 ],
					"hidden" : 0,
					"midpoints" : [  ]
				}

			}
, 			{
				"patchline" : 				{
					"source" : [ "obj-17", 0 ],
					"destination" : [ "obj-19", 0 ],
					"hidden" : 0,
					"midpoints" : [  ]
				}

			}
, 			{
				"patchline" : 				{
					"source" : [ "obj-19", 0 ],
					"destination" : [ "obj-18", 0 ],
					"hidden" : 0,
					"midpoints" : [  ]
				}

			}
, 			{
				"patchline" : 				{
					"source" : [ "obj-20", 0 ],
					"destination" : [ "obj-19", 0 ],
					"hidden" : 0,
					"midpoints" : [  ]
				}

			}
, 			{
				"patchline" : 				{
					"source" : [ "obj-8", 0 ],
					"destination" : [ "obj-16", 0 ],
					"hidden" : 0,
					"midpoints" : [  ]
				}

			}
 ]
	}

}
